# xmcd CD database file
#
# Track frame offsets:
#	182
#	46927
#	65740
#	120650
#	181765
#
# Disc length: 3202 seconds
#
# Revision: 0
# Processed by: cddbd v1.5.1PL0 Copyright (c) Steve Scherf et al.
# Submitted via: CDex 1.51
#
DISCID=3e0c8005
DTITLE=Eddie Harris - Listen Here - cd1
DYEAR=1982
DGENRE=Jazz
TTITLE0=I Love You
TTITLE1=Body And Soul - God Bless The Child
TTITLE2=Love For Sale
TTITLE3=Listen Here
TTITLE4=Theme In Search of a Movie
EXTD=YEAR: 1982
EXTT0=
EXTT1=
EXTT2=
EXTT3=
EXTT4=
PLAYORDER=
